<?xml version="1.0" encoding="UTF-8" standalone="no"?>
<svg
   xmlns:dc="http://purl.org/dc/elements/1.1/"
   xmlns:cc="http://creativecommons.org/ns#"
   xmlns:rdf="http://www.w3.org/1999/02/22-rdf-syntax-ns#"
   xmlns:svg="http://www.w3.org/2000/svg"
   xmlns="http://www.w3.org/2000/svg"
   xmlns:sodipodi="http://sodipodi.sourceforge.net/DTD/sodipodi-0.dtd"
   xmlns:inkscape="http://www.inkscape.org/namespaces/inkscape"
   width="760"
   height="360"
   version="1.1"
   id="svg73"
   sodipodi:docname="truck_grp.svg"
   inkscape:version="0.92.4 5da689c313, 2019-01-14">
  <defs
     id="defs77" />
  <sodipodi:namedview
     pagecolor="#ffffff"
     bordercolor="#666666"
     borderopacity="1"
     objecttolerance="10"
     gridtolerance="10"
     guidetolerance="10"
     inkscape:pageopacity="0"
     inkscape:pageshadow="2"
     inkscape:window-width="2556"
     inkscape:window-height="1393"
     id="namedview75"
     showgrid="false"
     inkscape:snap-bbox="false"
     inkscape:zoom="0.66184211"
     inkscape:cx="-129.04307"
     inkscape:cy="35.079803"
     inkscape:window-x="0"
     inkscape:window-y="45"
     inkscape:window-maximized="0"
     inkscape:current-layer="svg73"
     inkscape:snap-text-baseline="false" />
  <path
     inkscape:connector-curvature="0"
     id="truck"
     d="m 51.080083,87.484352 -39.28125,97.724608 v 92.90625 c 0,6.47406 4.522608,12.38672 12.59961,12.38672 H 46.632817 C 63.502558,228.0995 128.28394,218.82629 157.06641,271.2324 h 71.15234 c 31.72209,-49.80697 104.55521,-40.59246 108.21094,18.66016 h 20.01172 c 0,-25.06269 -27.3824,-70.27539 -57.81055,-70.27539 H 159.29102 L 160.00977,87.824196 Z M 104.38867,247.22264 c -24.572308,0.172 -44.359788,18.77732 -44.236321,41.59375 0.123467,22.81631 20.110659,41.2372 44.683591,41.17968 24.57293,-0.0573 44.461,-18.56994 44.46094,-41.38671 l -0.002,-0.41602 c -0.24693,-22.81549 -20.33393,-41.14267 -44.90625,-40.9707 z m 175.71094,0 c -24.57231,0.172 -44.35982,18.77732 -44.23633,41.59375 0.12349,22.81631 20.11066,41.2372 44.6836,41.17968 24.57293,-0.0573 44.46099,-18.56994 44.46093,-41.38671 l -0.002,-0.41602 c -0.24693,-22.81549 -20.33394,-41.14267 -44.90625,-40.9707 z"
     style="fill:#000000;fill-rule:nonzero;stroke-width:1.98951471;stroke-linecap:round;stroke-miterlimit:4;stroke-dashoffset:0;marker-start:none;marker-mid:none;marker-end:none" />
  <path
     inkscape:connector-curvature="0"
     id="trailer"
     d="M 208.13477,47.953102 208.00781,207.32029 747.71094,207.2031 V 48.498024 Z M 559.54102,219.86131 c -30.42815,0 -57.81053,45.21064 -57.81055,70.27344 h 20.06445 c 3.55237,-57.57751 72.41046,-64.09942 93.6211,-38.46094 l -0.0645,2.33594 h 20.06641 l -0.0664,-2.33594 c 21.21061,-25.63848 90.06873,-19.11657 93.6211,38.46094 h 20.00195 c -3e-5,-25.0628 -27.38436,-70.27344 -57.8125,-70.27344 z m 15.06836,27.36133 c -24.57231,0.172 -44.35981,18.77732 -44.23633,41.59375 0.12349,22.81631 20.11262,41.23714 44.68554,41.17968 24.57294,-0.0573 44.45905,-18.56994 44.45899,-41.38671 l -0.002,-0.41602 c -0.24693,-22.81549 -20.33394,-41.14271 -44.90624,-40.9707 z m 98.35546,0 c -24.57231,0.172 -44.35982,18.77732 -44.23632,41.59375 0.12349,22.81631 20.11068,41.23714 44.68359,41.17968 24.57294,-0.0573 44.461,-18.56994 44.46094,-41.38671 l -0.002,-0.41602 c -0.24693,-22.81549 -20.33391,-41.14271 -44.90625,-40.9707 z"
     style="fill:#cccccc;fill-rule:nonzero;stroke-width:1.98951471;stroke-linecap:round;stroke-miterlimit:4;stroke-dashoffset:0;marker-start:none;marker-mid:none;marker-end:none" />
  <path
     stroke-miterlimit="4"
     id="window"
     d="m 118.28646,110.25706 0.20881,60.00242 -93.545075,9.18226 26.459875,-68.9908 z"
     style="fill:#cccccc;fill-rule:nonzero;stroke-width:1.98951471;stroke-linecap:round;stroke-miterlimit:4;stroke-dashoffset:0;marker-start:none;marker-mid:none;marker-end:none"
     inkscape:connector-curvature="0" />
  <path
     style="stroke-width:1;stroke:#000000;stroke-opacity:1;stroke-miterlimit:4;stroke-dasharray:none"
     id="cargo"
     d="m 625.7003,58.018686 -69.26701,37.602085 c 0,0 22.2644,13.358649 22.01702,12.369119 l 69.76176,-37.354708 z m 52.19618,27.137148 -71.09531,39.699536 c 0,0 16.38118,9.3785 17.72406,10.33158 l 72.10706,-39.692768 c -0.16807,-0.08697 -18.73581,-10.338348 -18.73581,-10.338348 z m 20.03941,13.928297 -71.24606,38.838999 v 62.09291 l 71.74082,-38.83899 z m -142.49214,0.24737 c 0,0 1.7e-4,62.092769 -0.16475,62.010309 -0.16491,-0.0824 67.45271,38.92162 67.45271,38.92162 l 0.49476,-61.84555 -18.30628,-10.39004 -0.24737,23.25392 -7.91623,-10.39005 -7.91624,1.73167 -5.68979,-8.16361 -6.18455,1.23693 0.24738,-23.50131 z"
     inkscape:connector-curvature="0" />
  <text
     y="219.30014"
     x="86.675941"
     style="font-style:normal;font-weight:normal;font-size:40px;line-height:1.25;text-align:center;letter-spacing:0px;word-spacing:0px;text-anchor:middle;fill:#ffffff;fill-opacity:1;stroke:none"
     xml:space="preserve"
     id="text51"><tspan
       y="219.30014"
       x="86.675941"
       id="truckdmg"
       sodipodi:role="line">100%</tspan></text>
  <text
     y="141.94373"
     x="357.04852"
     style="font-style:normal;font-weight:normal;font-size:40px;line-height:1.25;text-align:center;letter-spacing:0px;word-spacing:0px;text-anchor:middle;fill:#ffffff;fill-opacity:1;stroke:none"
     xml:space="preserve"
     id="text54"><tspan
       y="141.94373"
       x="357.04852"
       id="trailerdmg"
       sodipodi:role="line">100%</tspan></text>
  <text
     y="159.75394"
     x="659.46777"
     style="font-style:normal;font-weight:normal;font-size:40px;line-height:1.25;text-align:center;letter-spacing:0px;word-spacing:0px;text-anchor:middle;fill:#ffffff;fill-opacity:1;stroke:none"
     xml:space="preserve"
     id="text54-3"><tspan
       y="159.75394"
       x="659.46777"
       id="cargodmg"
       sodipodi:role="line"
       style="font-size:24px">100%</tspan></text>
</svg>
